HIERARCHY
ROOT hips
{
  OFFSET 0 11.86390953 0.3628582958
  CHANNELS 6 Xposition Yposition Zposition Yrotation Xrotation Zrotation
  JOINT spine
  {
    OFFSET 0 0.05383551117999996 0
    CHANNELS 3 Yrotation Xrotation Zrotation
    JOINT chest
    {
      OFFSET 0 0.6394558760401424 0
      CHANNELS 3 Yrotation Xrotation Zrotation
      JOINT neck
      {
        OFFSET 0 2.720089088562982 0
        CHANNELS 3 Yrotation Xrotation Zrotation
        JOINT head
        {
          OFFSET 0 0.37880844870545777 0
          CHANNELS 3 Yrotation Xrotation Zrotation
          JOINT rightEye
          {
            OFFSET -0.42867780714 0.7547055649100001 0.7381831347
            CHANNELS 3 Yrotation Xrotation Zrotation
            End Site
            {
              OFFSET -0.42867780714 0.7547055649100001 0.7381831347
            }
          }
          JOINT leftEye
          {
            OFFSET 0.428676479 0.7547055559999993 0.7381844503
            CHANNELS 3 Yrotation Xrotation Zrotation
            End Site
            {
              OFFSET 0.428676479 0.7547055559999993 0.7381844503
            }
          }
          JOINT jaw
          {
            OFFSET -0.18933892286100001 1.5626303011000007 1.137441874206
            CHANNELS 3 Yrotation Xrotation Zrotation
            End Site
            {
              OFFSET -0.18933892286100001 1.5626303011000007 1.137441874206
            }
          }
        }
      }
      JOINT rightShoulder
      {
        OFFSET -0.6795351508 2.0665205 0
        CHANNELS 3 Yrotation Xrotation Zrotation
        JOINT rightUpperArm
        {
          OFFSET -0.7287400483531672 0 0
          CHANNELS 3 Yrotation Xrotation Zrotation
          JOINT rightLowerArm
          {
            OFFSET -1.9872982039174532 0 0
            CHANNELS 3 Yrotation Xrotation Zrotation
            JOINT rightHand
            {
              OFFSET -2.6451847532219275 0 0
              CHANNELS 3 Yrotation Xrotation Zrotation
              JOINT rightLittleProximal
              {
                OFFSET -0.8008804099999995 -0.09592044000000044 -0.26183688629999996
                CHANNELS 3 Yrotation Xrotation Zrotation
                JOINT rightLittleIntermediate
                {
                  OFFSET -0.2473955153999997 -0.02541697026000067 0.002370178700999967
                  CHANNELS 3 Yrotation Xrotation Zrotation
                  JOINT rightLittleDistal
                  {
                    OFFSET -0.163687229200001 -0.015790700860001117 -0.0004274845300000635
                    CHANNELS 3 Yrotation Xrotation Zrotation
                    End Site
                    {
                      OFFSET -0.163687229200001 -0.015790700860001117 -0.0004274845300000635
                    }
                  }
                }
              }
              JOINT rightRingProximal
              {
                OFFSET -0.8393382799999985 -0.06223833561000025 -0.09213143500000005
                CHANNELS 3 Yrotation Xrotation Zrotation
                JOINT rightRingIntermediate
                {
                  OFFSET -0.3284497260000011 -0.03264224524000103 0.009408593183000052
                  CHANNELS 3 Yrotation Xrotation Zrotation
                  JOINT rightRingDistal
                  {
                    OFFSET -0.19447660429999902 -0.021730899850000318 0.003074347969000052
                    CHANNELS 3 Yrotation Xrotation Zrotation
                    End Site
                    {
                      OFFSET -0.19447660429999902 -0.021730899850000318 0.003074347969000052
                    }
                  }
                }
              }
              JOINT rightMiddleProximal
              {
                OFFSET -0.8473005199999989 -0.06735503500000095 0.10541820299999995
                CHANNELS 3 Yrotation Xrotation Zrotation
                JOINT rightMiddleIntermediate
                {
                  OFFSET -0.3450455799999995 -0.02481901642000084 0.019012570390000032
                  CHANNELS 3 Yrotation Xrotation Zrotation
                  JOINT rightMiddleDistal
                  {
                    OFFSET -0.23542332000000088 -0.025003910029999243 0.0075583457949999905
                    CHANNELS 3 Yrotation Xrotation Zrotation
                    End Site
                    {
                      OFFSET -0.23542332000000088 -0.025003910029999243 0.0075583457949999905
                    }
                  }
                }
              }
              JOINT rightIndexProximal
              {
                OFFSET -0.8008568281999987 -0.09897839600000169 0.29462796
                CHANNELS 3 Yrotation Xrotation Zrotation
                JOINT rightIndexIntermediate
                {
                  OFFSET -0.30524754480000016 -0.024634122809999992 0.02743375304999998
                  CHANNELS 3 Yrotation Xrotation Zrotation
                  JOINT rightIndexDistal
                  {
                    OFFSET -0.23067378950000017 -0.016876459159999913 0.008484125099999983
                    CHANNELS 3 Yrotation Xrotation Zrotation
                    End Site
                    {
                      OFFSET -0.23067378950000017 -0.016876459159999913 0.008484125099999983
                    }
                  }
                }
              }
              JOINT rightThumbProximal
              {
                OFFSET -0.25574064999999935 -0.12833189930000155 0.22385698609999993
                CHANNELS 3 Yrotation Xrotation Zrotation
                JOINT rightThumbIntermediate
                {
                  OFFSET -0.22791743260000086 -0.07103586192999978 0.27385039
                  CHANNELS 3 Yrotation Xrotation Zrotation
                  JOINT rightThumbDistal
                  {
                    OFFSET -0.13610267659999975 -0.03369390969999997 0.14246511509999996
                    CHANNELS 3 Yrotation Xrotation Zrotation
                    End Site
                    {
                      OFFSET -0.13610267659999975 -0.03369390969999997 0.14246511509999996
                    }
                  }
                }
              }
            }
          }
        }
      }
      JOINT leftShoulder
      {
        OFFSET 0.6795338396 2.0665205 0
        CHANNELS 3 Yrotation Xrotation Zrotation
        JOINT leftUpperArm
        {
          OFFSET 0.7287383950230443 0 0
          CHANNELS 3 Yrotation Xrotation Zrotation
          JOINT leftLowerArm
          {
            OFFSET 1.9872997282019604 0 0
            CHANNELS 3 Yrotation Xrotation Zrotation
            JOINT leftHand
            {
              OFFSET 2.6451820781302327 0 0
              CHANNELS 3 Yrotation Xrotation Zrotation
              JOINT leftLittleProximal
              {
                OFFSET 0.8008804099999995 -0.09592306899999814 -0.2618342639000001
                CHANNELS 3 Yrotation Xrotation Zrotation
                JOINT leftLittleIntermediate
                {
                  OFFSET 0.2473981400000007 -0.02542352681000093 0.0023609995859999455
                  CHANNELS 3 Yrotation Xrotation Zrotation
                  JOINT leftLittleDistal
                  {
                    OFFSET 0.1636846068000002 -0.015794634789999318 -0.00043272972159996703
                    CHANNELS 3 Yrotation Xrotation Zrotation
                    End Site
                    {
                      OFFSET 0.1636846068000002 -0.015794634789999318 -0.00043272972159996703
                    }
                  }
                }
              }
              JOINT leftRingProximal
              {
                OFFSET 0.8393409199999996 -0.062242267999998324 -0.0921281570000001
                CHANNELS 3 Yrotation Xrotation Zrotation
                JOINT leftRingIntermediate
                {
                  OFFSET 0.3284471036000003 -0.03264224524000103 0.009405970574000042
                  CHANNELS 3 Yrotation Xrotation Zrotation
                  JOINT leftRingDistal
                  {
                    OFFSET 0.1944779099999996 -0.021732211159998904 0.003073036670000001
                    CHANNELS 3 Yrotation Xrotation Zrotation
                    End Site
                    {
                      OFFSET 0.1944779099999996 -0.021732211159998904 0.003073036670000001
                    }
                  }
                }
              }
              JOINT leftMiddleProximal
              {
                OFFSET 0.8473005200000001 -0.06736028199999788 0.1054214809999999
                CHANNELS 3 Yrotation Xrotation Zrotation
                JOINT leftMiddleIntermediate
                {
                  OFFSET 0.3450455799999995 -0.024824261000000014 0.019013225990000007
                  CHANNELS 3 Yrotation Xrotation Zrotation
                  JOINT leftMiddleDistal
                  {
                    OFFSET 0.2354259489999998 -0.025005222000000327 0.0075590014499999705
                    CHANNELS 3 Yrotation Xrotation Zrotation
                    End Site
                    {
                      OFFSET 0.2354259489999998 -0.025005222000000327 0.0075590014499999705
                    }
                  }
                }
              }
              JOINT leftIndexProximal
              {
                OFFSET 0.8008594516999996 -0.09898495199999946 0.29463124239999994
                CHANNELS 3 Yrotation Xrotation Zrotation
                JOINT leftIndexIntermediate
                {
                  OFFSET 0.30524754480000016 -0.024632811499998963 0.02743047472
                  CHANNELS 3 Yrotation Xrotation Zrotation
                  JOINT leftIndexDistal
                  {
                    OFFSET 0.23067378950000017 -0.016876459159999913 0.008481502700000004
                    CHANNELS 3 Yrotation Xrotation Zrotation
                    End Site
                    {
                      OFFSET 0.23067378950000017 -0.016876459159999913 0.008481502700000004
                    }
                  }
                }
              }
              JOINT leftThumbProximal
              {
                OFFSET 0.25574326469999953 -0.12833321050000013 0.22385764169999997
                CHANNELS 3 Yrotation Xrotation Zrotation
                JOINT leftThumbIntermediate
                {
                  OFFSET 0.22804987480000094 -0.07138466829999968 0.273648441
                  CHANNELS 3 Yrotation Xrotation Zrotation
                  JOINT leftThumbDistal
                  {
                    OFFSET 0.13614857189999907 -0.033867001519998885 0.14238119169999996
                    CHANNELS 3 Yrotation Xrotation Zrotation
                    End Site
                    {
                      OFFSET 0.13614857189999907 -0.033867001519998885 0.14238119169999996
                    }
                  }
                }
              }
            }
          }
        }
      }
    }
  }
  JOINT rightUpperLeg
  {
    OFFSET -0.9749898906000001 -1.8495733739999998 0
    CHANNELS 3 Yrotation Xrotation Zrotation
    JOINT rightLowerLeg
    {
      OFFSET 0 -4.1566544686813165 0
      CHANNELS 3 Yrotation Xrotation Zrotation
      JOINT rightFoot
      {
        OFFSET 0.14539718599999998 -4.225553926 -0.3666210900000001
        CHANNELS 3 Yrotation Xrotation Zrotation
        JOINT rightToes
        {
          OFFSET 0.1706738473 -0.9584117400000015 1.0093348617
          CHANNELS 3 Yrotation Xrotation Zrotation
          End Site
          {
            OFFSET 0.1706738473 -0.9584117400000015 1.0093348617
          }
        }
      }
    }
  }
  JOINT leftUpperLeg
  {
    OFFSET 0.9749898906000001 -1.8495733739999998 0
    CHANNELS 3 Yrotation Xrotation Zrotation
    JOINT leftLowerLeg
    {
      OFFSET 0 -4.156653488267941 0
      CHANNELS 3 Yrotation Xrotation Zrotation
      JOINT leftFoot
      {
        OFFSET -0.14537357999999995 -4.225555399999999 -0.36661124279999996
        CHANNELS 3 Yrotation Xrotation Zrotation
        JOINT leftToes
        {
          OFFSET -0.17066467000000002 -0.9584157000000019 1.0093348617
          CHANNELS 3 Yrotation Xrotation Zrotation
          End Site
          {
            OFFSET -0.17066467000000002 -0.9584157000000019 1.0093348617
          }
        }
      }
    }
  }
}
MOTION
Frames: 4
Frame Time: 0.03333333333333333
0.054442476481199265 -0.30076198513916097 0.02757442370057106 1.508663648461943 -0.8959906379362578 -5.402547814932263 -1.1587853988687022 1.296897180427999 3.005753521493671 1.2666112593494185 1.33904643725494 11.808537506006994 -0.3326690323299457 1.0447748186902375 -2.165939783362707 0.4395023618871363 1.5774491832970126 -8.13468443172564 0 0 0 0 0 0 0 0 0 3.4051738340552045 4.498128066425447 5.695672901590893 1.3394212470138969 -1.6742168632417678 67.30132592129479 17.73525639863297 0.03517929507197014 -0.22546762265881345 -9.163840315367608 -11.056652565776082 12.02734675220329 -15.602424658259586 5.214467995580413 35.64273714454124 -3.4992954400838405 1.0430522579008317 45.60929358540546 -0.033220576330997 -0.8197436745554469 22.123056888260525 -11.331868802152089 2.432264571631198 26.554263466198858 -3.433829040355795 1.5389296408100637 40.160234045265426 0.24966984526135746 -0.187169434124259 17.812861264631778 -8.623131937666097 0.8982483989331415 15.807229978808051 -3.4932446560192 0.7745379068324891 33.39060116607288 -1.5230980260549807 0.18753299689886166 15.913370551341757 -4.5887117208705765 0.3364891226517552 7.877053815248348 -2.534943002207163 0.3365446989386174 20.583280098482387 -0.04944378574123096 -0.21471078078497433 13.845808953279843 -0.473079711816177 18.648796673076934 -11.237338497018149 -31.738194933930984 0.8893882986813051 3.1663958767214293 -7.6987692505514635 1.6458735561640097 1.1069036444133264 -13.854271174116764 3.4969859946641635 -5.725289193931028 2.783550480173388 3.370363444113726 -83.5189338826169 -14.505515298880319 0.023559832738913128 0.18539925806505486 4.035410932765779 -27.54270714636255 -11.331090762986417 15.842055615600941 5.385659723371359 -35.625569051143444 3.461913636862238 1.3046829344620814 -45.60491316600818 2.573243905692782 0.5107376808772303 -20.536087876226805 11.348361550378634 2.4405333736679338 -26.553769642060463 3.409805594264578 1.5344397380010109 -40.160062277427286 1.589835790244998 0.5033891767723796 -19.351068345638467 8.564243963358843 0.8815988717137268 -15.807288306925729 3.5864573651460403 0.7958237356051984 -33.391453133004255 1.3339326451457911 0.1540848111148095 -12.278669089146033 4.564986720485598 0.33321615216382083 -7.876677406718634 2.5749965361033356 0.342676528942618 -20.583704612386587 0.6785100005516007 0.02293738500880491 -10.178995624002237 0.3620950412722076 18.62556471807754 11.179677000926409 31.85289852949667 0.923475688987639 -3.1230180287894953 8.671560127877457 1.8058007552316298 -0.29955098760663507 -4.832667051217888 -1.6075087166360635 10.752334489689286 -5.161662980360137 12.397637256553299 2.222680274431553 0.9236109506163339 -9.850315647826202 -7.926914308418289 -4.222163334439773e-7 -0.5486497864369199 -0.0000012292916732887527 11.672768426171988 -19.19645153627779 11.913067706557774 10.264333652860556 21.734934268719677 6.051734880894205 3.2388922423793725 -1.495878801744854 -8.908673549445448 0.000009454891085138523 -0.44197226397234274 -2.550324238260643e-7
0.05444241315126419 -0.30076198513916097 0.02757442370057106 1.5086635417641878 -0.8959906379362578 -5.402547389889805 -1.1581667010393435 1.2974056262089657 3.0054898216970085 1.2670398479464178 1.3392367740416666 11.808248791093266 -0.3329444031135401 1.0434885018286102 -2.165146277343186 0.4391179286873684 1.5760927704233092 -8.133190287241241 0 0 0 0 0 0 0 0 0 3.4044976904597086 4.498290356419404 5.696769118341463 1.3385054415534055 -1.6711418611113757 67.29946823246364 17.735529618280335 0.03518304700764631 -0.22544003530632303 -9.163828764790264 -11.057049250061278 12.025880569237767 -15.60242961264192 5.214458993702749 35.64270764475119 -3.4992956531646033 1.043046280494852 45.609310516790664 -0.033233287518021244 -0.8197394586165838 22.123056888260525 -11.331867964267467 2.4322630761800514 26.554269580670663 -3.433832450549122 1.5389351923411627 40.16023885945496 0.24967670210251686 -0.1871738497583969 17.812859638934373 -8.623131093439833 0.8982463709715204 15.80722083253666 -3.4932501957428386 0.7745336909399068 33.390625794583855 -1.5230885311282913 0.18753140940498483 15.913373835578467 -4.58871342297394 0.3364908035476086 7.8770419749947225 -2.534936818298619 0.33653701484324744 20.583240127328317 -0.049444396060042244 -0.21470845957157528 13.845817242995604 -0.47308672153289183 18.64878946440693 -11.237351754145477 -31.738199635372794 0.8893901665361876 3.1663928927162313 -7.698775175540463 1.6458760117763331 1.1068935035595218 -13.852095307626907 3.497272970112176 -5.723677344270768 2.7797768053894667 3.371408563739172 -83.52521839030811 -14.50903726378727 0.02357923107810687 0.18543295526951875 4.03284191681192 -27.54742162006554 -11.325210727259734 15.842063151908699 5.385664011168138 -35.62556147660443 3.461914702408016 1.3046922216581915 -45.6049228273208 2.5732398541963617 0.5107401355739887 -20.53610146602435 11.348363226061448 2.440538928234885 -26.553757412302545 3.409806873116444 1.5344377095612234 -40.16006709160562 1.5898251337028757 0.5033770633912702 -19.35105593598158 8.564242274651644 0.8816083177028649 -15.807291593261846 3.5864511862093007 0.7958056445310259 -33.391453133004255 1.3339429943830208 0.15409300203534926 -12.278678157889786 4.564991826963199 0.3332179397826237 -7.876690092711704 2.5749901391522263 0.34267207323171167 -20.58368182754896 0.6785129351930023 0.022944698781290504 -10.178993102995085 0.36209412957110826 18.625577331525776 11.179683886710283 31.852920245455437 0.9234668299353929 -3.1230291128026075 8.671552857260314 1.8058039584736152 -0.2995416449452839 -4.832613846745974 -1.6072734094042729 10.75232985846415 -5.161658452107121 12.397149476833906 2.2227253404081893 0.9235973360496981 -9.850073014402126 -7.926926215531307 -4.2506860750800527e-7 -0.5486497864369199 -0.000002083033105405966 11.67278189700319 -19.19637378874496 11.913072211497806 10.264308294831721 21.734779857242454 6.0516913444303935 3.2388860804603574 -1.4957971318087657 -8.90864633475198 0.000014107058343636741 -0.4419603374668967 -0.0000020218667899504906
0.05444246903061867 -0.30076198513916097 0.02757442370057106 1.508663435066433 -0.8959908514057704 -5.402547389889805 -1.1606777802539276 1.297833263029326 3.006473573168527 1.264429689648325 1.339704022626792 11.806355410323109 -0.3287354138933096 1.0464234099447751 -2.171864026548884 0.44616742144751326 1.586114872845491 -8.12959057494427 0 0 0 0 0 0 0 0 0 3.408291878466069 4.4965792479065465 5.673992034139961 1.3363738572118455 -1.69731599504858 67.32781411585182 17.726464959288773 0.035150323458447284 -0.22533456837654478 -9.158289934393233 -11.029253940273664 12.057221051892869 -15.602427961181172 5.214466709597882 35.642717215173995 -3.49928329448019 1.0430393424343543 45.609296026189284 -0.033238847620032666 -0.8197396187155278 22.12307211671116 -11.331868802152089 2.4322570943754833 26.554264994996654 -3.433830532315378 1.5389331638971055 40.16022923107595 0.24967312694020116 -0.18717437002948875 17.812876359639088 -8.623132781892355 0.8982472248500976 15.807223406104015 -3.493243803754019 0.7745339044028223 33.39059643477188 -1.5230981327395496 0.18753670549800297 15.913378761933322 -4.58871257192226 0.3364806914916059 7.877068660738564 -2.534940230110237 0.33653954952748344 20.583249320832348 -0.04944575010068364 -0.21470849959249597 13.845813098137798 -0.4730792315297419 18.648791266574403 -11.237338678436988 -31.738182626294286 0.8893880318448935 3.1664043779663227 -7.698772636259483 1.6458689652366305 1.1069278757163468 -13.86655389114968 3.494867682337624 -5.747464227195771 2.7939022766339123 3.3783145491818805 -83.47222560808525 -14.499491822545522 0.023551121578942538 0.18531710945601046 4.042503102218619 -27.541074075200033 -11.3398028677564 15.842057265575741 5.385649861438881 -35.62556426484186 3.4619074566966783 1.3046843222040267 -45.60490833535185 2.5732632503242363 0.5107437642561549 -20.536115456866277 11.348362388220044 2.4405278191010056 -26.55377422774932 3.4098100702460945 1.5344405920809219 -40.16007933086974 1.589832269648457 0.5033855480943357 -19.351063512208572 8.564249873833925 0.881594602340113 -15.807313172060802 3.586450547675695 0.7958250697552143 -33.39146071598384 1.3339392601221747 0.15407727386708436 -12.278683997614587 4.564994380201973 0.33321335067166774 -7.876698550039985 2.57499227146927 0.3426797039701513 -20.583692619625495 0.6785063189105645 0.022938782396251967 -10.178995624002237 0.36209557620684074 18.625557510393257 11.179655274584873 31.852910838064656 0.9234612796858043 -3.1229907450639143 8.671552012826917 1.805804599122013 -0.29955347008522 -4.832666200144496 -1.6075076489988342 10.752337007031313 -5.161657877409299 12.39763375992124 2.222682894932606 0.9236154994037298 -9.850314781277941 -7.926923369122525 -0.0000012629681156265523 -0.548655282856765 4.891221134156341e-7 11.672770196861793 -19.19645334436039 11.91306947569778 10.264330939639423 21.734937945185443 6.051733509902758 3.2388937346052056 -1.4958815774551537 -8.908675236968756 3.358555210687403e-7 -0.4419667943221917 -0.000002700205745398671
0.053314074873924255 -0.30092601712158284 0.025100665166974068 1.5644114339587514 -0.8750153966687979 -5.401008892957573 -1.1663963746690478 1.3006701217013952 3.008763897255145 1.2593035924840477 1.342428413513857 11.805273317036189 -0.3216468587697959 1.0594721284648523 -2.1850047429700408 0.4587005149708679 1.6106465048659422 -8.134083215293725 0 0 0 0 0 0 0 0 0 3.4191040536686224 4.4932713730972536 5.639745841235014 1.3415865767570345 -1.742302811204057 67.37052578768763 17.71327558667828 0.035095365104697004 -0.2251834782592031 -9.146761493517428 -10.996274938405842 12.097750612776801 -15.602426309720391 5.214454278433547 35.64272478725198 -3.4992982101337518 1.0430508702887282 45.609296026189284 -0.03322508244846517 -0.8197387648544928 22.123053724271028 -11.331869640036704 2.4322555989243453 26.554258880525076 -3.433821580557807 1.5389276123660118 40.16023885945496 0.24966715054946018 -0.18716739306074548 17.812865560740516 -8.623131093439833 0.8982413544348838 15.807237481903826 -3.4932540309360887 0.7745378001010312 33.390621063282424 -1.5230879977054412 0.18753370393394966 15.913370551341757 -4.588712146396419 0.33648573417916267 7.877055506713098 -2.5349383109662043 0.33654312476630155 20.58325691576742 -0.04944325546423098 -0.21471969210998085 13.845813927109372 -0.4730781317694608 18.648776849235162 -11.237330021771394 -31.738199635372794 0.8893883520485875 3.166372857252316 -7.698773482686479 1.6458709937859364 1.1068975599010522 -13.897267342321884 3.4903483754151905 -5.782744838952415 2.8366837034449 3.374393404206378 -83.38072019239962 -14.469816060049897 0.023460268049143834 0.1849529101653313 4.066548305958785 -27.513013306924908 -11.382832161025966 15.842064801883483 5.385658008252656 -35.62556147660443 3.461911292661518 1.3046809062238551 -45.60492038649102 2.573254567525344 0.5107435508042627 -20.536107862418113 11.348364063902848 2.440540637332413 -26.553761998744253 3.4098081519683063 1.534440698840911 -40.16006709160562 1.5898157454458683 0.5033789844561142 -19.351049970898266 8.564243119005246 0.8815956696835159 -15.807297453157236 3.5864552346865683 0.7958340886093328 -33.391492927601426 1.3339368061793266 0.15407508606420536 -12.27866575216029 4.564993954662178 0.3332152716948583 -7.876692629910226 2.5749976022618473 0.3426856271307625 -20.583706210951927 0.6785055185538167 0.02293402160727666 -10.178972331408792 0.36209982215052744 18.62556651999866 11.179676117062462 31.852903233191704 0.9234808122949723 -3.123031004114529 8.671555390560476 1.8057994739348366 -0.29957530521939163 -4.843748600436932 -1.6505456309996274 10.763449169193569 -5.15221988810391 12.409109084795409 2.2203583199907206 0.8569850369755678 -9.847979441981987 -7.925543935524867 0.0000029695748190611996 -0.5543948286594567 -8.479833918077512e-7 11.666336887512024 -19.23491395055217 11.905211654011005 10.267457819033364 21.716584361191902 6.046043313253932 3.181337975945495 -1.46843232190772 -8.892334185103545 3.4643360055487397e-7 -0.4390598225823354 -1.3809296642411448e-7
